<svg width="50" height="47" viewBox="0 0 50 47" fill="none" xmlns="http://www.w3.org/2000/svg">
<path d="M25 46.1268C22.0657 46.1268 19.3173 45.5693 16.7547 44.4542C14.1921 43.3392 11.9621 41.8329 10.0646 39.9355C8.16706 38.038 6.6608 35.8079 5.54577 33.2453C4.43075 30.6827 3.87324 27.9343 3.87324 25C3.87324 22.0657 4.43075 19.3173 5.54577 16.7547C6.6608 14.1921 8.16706 11.9621 10.0646 10.0646C11.9621 8.16706 14.1921 6.6608 16.7547 5.54577C19.3173 4.43075 22.0657 3.87324 25 3.87324C27.9343 3.87324 30.6827 4.43075 33.2453 5.54577C35.8079 6.6608 38.038 8.16706 39.9354 10.0646C41.8329 11.9621 43.3392 14.1921 44.4542 16.7547C45.5693 19.3173 46.1268 22.0657 46.1268 25C46.1268 27.9343 45.5693 30.6827 44.4542 33.2453C43.3392 35.8079 41.8329 38.038 39.9354 39.9355C38.038 41.8329 35.8079 43.3392 33.2453 44.4542C30.6827 45.5693 27.9343 46.1268 25 46.1268ZM31.5728 34.8592L34.8592 31.5728L27.3474 24.061V13.2629H22.6526V25.939L31.5728 34.8592ZM9.97653 0L13.2629 3.28639L3.28639 13.2629L0 9.97653L9.97653 0ZM40.0235 0L50 9.97653L46.7136 13.2629L36.7371 3.28639L40.0235 0ZM25 41.4319C29.5775 41.4319 33.4605 39.8376 36.6491 36.6491C39.8376 33.4605 41.4319 29.5775 41.4319 25C41.4319 20.4225 39.8376 16.5395 36.6491 13.3509C33.4605 10.1624 29.5775 8.56808 25 8.56808C20.4225 8.56808 16.5395 10.1624 13.3509 13.3509C10.1624 16.5395 8.56808 20.4225 8.56808 25C8.56808 29.5775 10.1624 33.4605 13.3509 36.6491C16.5395 39.8376 20.4225 41.4319 25 41.4319Z" fill="#1C1B1F"/>
</svg>
