<svg width="190" height="46" viewBox="0 0 290 69" fill="none" xmlns="http://www.w3.org/2000/svg">
<path d="M217.912 43.4668L223.5 38.5C225.709 36.2909 225.709 32.7091 223.5 30.5L217.912 25.5332C215.645 23.5176 213.155 21.7665 210.492 20.3138L206.25 18.0002C204.42 17.0016 202.514 16.1477 200.55 15.4463L189.5 11.5L171.5 6.5L155.5 3.5L138.5 1.5L123.5 0.5L87.5 0.5L56.5 2.5L31.5 5.5L21.1356 7.68198C15.5355 8.86094 10.4812 11.8553 6.75685 16.2003C2.71932 20.9108 0.5 26.9102 0.5 33.1142L0.5 35.8858C0.5 42.0898 2.69733 48.0635 6.73486 52.774C10.4592 57.1191 15.5355 60.1391 21.1356 61.318L31.5 63.5L56.5 66.5L87.5 68.5L123.5 68.5L138.5 67.5L155.5 65.5L171.5 62.5L189.5 57.5L200.55 53.5537C202.514 52.8523 204.42 51.9984 206.25 50.9998L210.492 48.6862C213.155 47.2335 215.645 45.4824 217.912 43.4668Z" fill="#9747FF" stroke="#E56969"/>
<path d="M209.5 37.5C209.833 37.5 210.196 37.7025 210.498 38.156C210.798 38.606 211 39.2565 211 40C211 40.7435 210.798 41.394 210.498 41.844C210.196 42.2975 209.833 42.5 209.5 42.5C209.167 42.5 208.804 42.2975 208.502 41.844C208.202 41.394 208 40.7435 208 40C208 39.2565 208.202 38.606 208.502 38.156C208.804 37.7025 209.167 37.5 209.5 37.5Z" fill="#E56969" stroke="black"/>
<path d="M209.5 26.5C209.833 26.5 210.196 26.7025 210.498 27.156C210.798 27.606 211 28.2565 211 29C211 29.7435 210.798 30.394 210.498 30.844C210.196 31.2975 209.833 31.5 209.5 31.5C209.167 31.5 208.804 31.2975 208.502 30.844C208.202 30.394 208 29.7435 208 29C208 28.2565 208.202 27.606 208.502 27.156C208.804 26.7025 209.167 26.5 209.5 26.5Z" fill="#E56969" stroke="black"/>
<path d="M183 47.5C176.114 47.5 170.5 41.6977 170.5 34.5C170.5 27.3023 176.114 21.5 183 21.5C189.886 21.5 195.5 27.3023 195.5 34.5C195.5 41.6977 189.886 47.5 183 47.5Z" stroke="#2C2C2C"/>
<ellipse cx="183" cy="34.4999" rx="7.26923" ry="7" transform="rotate(90 183 34.4999)" fill="#6BC9E6"/>
<path d="M184 25.1538C184.552 25.1538 185 25.6015 185 26.1538V29.3077H179V25.1538H184Z" fill="#6BC9E6"/>
<path d="M185 39.6924V42.8462C185 43.3985 184.552 43.8462 184 43.8462H179V39.6924H185Z" fill="#6BC9E6"/>
<line x1="177.5" y1="26.1924" x2="177.5" y2="29.3078" stroke="#D7D7D7"/>
<line x1="177" y1="27.7693" x2="191" y2="27.7693" stroke="white"/>
<line x1="195" y1="27.731" x2="191" y2="27.731" stroke="#FC2424"/>
<line x1="194" y1="26.6924" x2="191" y2="26.6924" stroke="#E56969"/>
<line x1="177.5" y1="39.6924" x2="177.5" y2="42.8078" stroke="#D7D7D7"/>
<line x1="177" y1="41.2693" x2="191" y2="41.2693" stroke="white"/>
<line x1="194" y1="42.2695" x2="191" y2="42.2695" stroke="#E56969"/>
<line x1="195" y1="41.231" x2="191" y2="41.231" stroke="#FC2424"/>
<path d="M135.151 20.7167C136.965 19.5559 139.02 18.723 141.229 18.3052L141.322 18.7964C142.35 18.602 143.412 18.5 144.5 18.5C145.588 18.5 146.65 18.602 147.678 18.7964L147.771 18.3052C149.98 18.723 152.035 19.5559 153.849 20.7167L153.579 21.1378C155.387 22.2953 156.946 23.7882 158.161 25.5242L158.571 25.2374C159.817 27.0178 160.714 29.0473 161.167 31.2329L160.677 31.3342C160.889 32.3572 161 33.4158 161 34.5C161 35.5842 160.889 36.6428 160.677 37.6658L161.167 37.7671C160.714 39.9527 159.817 41.9822 158.571 43.7626L158.161 43.4758C156.946 45.2118 155.387 46.7047 153.579 47.8622L153.849 48.2833C152.035 49.4441 149.98 50.277 147.771 50.6948L147.678 50.2036C146.65 50.398 145.588 50.5 144.5 50.5C143.412 50.5 142.35 50.398 141.322 50.2036L141.229 50.6948C139.02 50.277 136.965 49.4441 135.151 48.2833L135.421 47.8622C133.613 46.7047 132.054 45.2118 130.839 43.4758L130.429 43.7626C129.183 41.9822 128.286 39.9527 127.833 37.7671L128.323 37.6658C128.111 36.6428 128 35.5842 128 34.5C128 33.4158 128.111 32.3572 128.323 31.3342L127.833 31.2329C128.286 29.0473 129.183 27.0178 130.429 25.2374L130.839 25.5242C132.054 23.7882 133.613 22.2953 135.421 21.1378L135.151 20.7167Z" stroke="#E56969" stroke-dasharray="7 7"/>
<path d="M141.5 49L141.019 48.3985C134.337 40.0458 134.539 28.1216 141.5 20V20L153.5 28V41L141.5 49Z" fill="#6BC9E6"/>
<rect x="143" y="35.5" width="2" height="25" transform="rotate(-90 143 35.5)" fill="#D9D9D9" stroke="black"/>
<path d="M121.5 68H112.5V33.5V1H121.5L135.5 27V43L121.5 68Z" fill="#3A849B"/>
<path d="M87.5 68V67V66H112.5V68H87.5Z" fill="#3A849B"/>
<path d="M87.5 3V2V1L112.5 1V2V3L87.5 3Z" fill="#3A849B"/>
<path d="M51.5 19.0518L56.5 3.0008L87.5 1L88 25.0518L69.5 25.0518L61.5 19.0518H51.5Z" fill="#3A849B"/>
<path d="M51.5 50.8906L56.5 66.001L87.5 68L88 44.8906H69.5L61.5 50.8906H51.5Z" fill="#3A849B"/>
<path d="M88 65.5V3.5H114.5C116.433 3.5 118 5.06701 118 7V61C118 63.4853 115.985 65.5 113.5 65.5H88Z" fill="#9747FF" stroke="black"/>
<path d="M109 51.5V17.5H113.5C114.881 17.5 116 18.6193 116 20V49C116 50.3807 114.881 51.5 113.5 51.5H109Z" fill="#3A849B" stroke="black"/>
<rect x="89" y="58.5" width="48" height="20" transform="rotate(-90 89 58.5)" fill="#3A849B" stroke="black"/>
<rect x="107.5" y="51" width="33" height="3" transform="rotate(-90 107.5 51)" fill="#3A849B"/>
<rect x="91.5" y="61" width="5" height="16" rx="2" transform="rotate(-90 91.5 61)" fill="#E56969"/>
<rect x="91.5" y="13" width="5" height="16" rx="2" transform="rotate(-90 91.5 13)" fill="#E56969"/>
<rect x="98" y="47.5" width="26" height="8" transform="rotate(-90 98 47.5)" fill="#6BC9E6" stroke="black"/>
<rect x="82" y="56.5" width="44" height="18" rx="6.5" transform="rotate(-90 82 56.5)" fill="#6BC9E6" stroke="black"/>
<path d="M90 31.5H98.5C98.7761 31.5 99 31.7239 99 32V37C99 37.2761 98.7761 37.5 98.5 37.5H90C88.3431 37.5 87 36.1569 87 34.5C87 32.8431 88.3431 31.5 90 31.5Z" fill="#D9D9D9" stroke="black"/>
<circle cx="99" cy="34.5" r="3.5" transform="rotate(-90 99 34.5)" fill="white"/>
<rect x="88.5" y="45" width="4" height="13" rx="2" transform="rotate(-90 88.5 45)" fill="#D9D9D9"/>
<rect x="88.5" y="28" width="4" height="13" rx="2" transform="rotate(-90 88.5 28)" fill="#D9D9D9"/>
<rect x="89.5" y="63" width="57" height="3" rx="1.5" transform="rotate(-90 89.5 63)" fill="#D9D9D9"/>
<path d="M43 21.5C49.8859 21.5 55.5 27.3023 55.5 34.5C55.5 41.6977 49.8859 47.5 43 47.5C36.1141 47.5 30.5 41.6977 30.5 34.5C30.5 27.3023 36.1141 21.5 43 21.5Z" stroke="#2C2C2C"/>
<ellipse cx="41" cy="34.5001" rx="7.26923" ry="7" transform="rotate(-90 41 34.5001)" fill="#6BC9E6"/>
<path d="M40 43.8462C39.4477 43.8462 39 43.3985 39 42.8462V39.6923H45V43.8462H40Z" fill="#6BC9E6"/>
<path d="M39 29.3076V26.1538C39 25.6015 39.4477 25.1538 40 25.1538H45V29.3076H39Z" fill="#6BC9E6"/>
<line x1="46.5" y1="42.8076" x2="46.5" y2="39.6922" stroke="#D7D7D7"/>
<line x1="47" y1="41.2307" x2="33" y2="41.2307" stroke="white"/>
<line x1="29" y1="41.269" x2="33" y2="41.269" stroke="#FC2424"/>
<line x1="30" y1="42.3076" x2="33" y2="42.3076" stroke="#E56969"/>
<line x1="46.5" y1="29.3076" x2="46.5" y2="26.1922" stroke="#D7D7D7"/>
<line x1="47" y1="27.7307" x2="33" y2="27.7307" stroke="white"/>
<line x1="30" y1="26.7305" x2="33" y2="26.7305" stroke="#E56969"/>
<line x1="29" y1="27.769" x2="33" y2="27.769" stroke="#FC2424"/>
<rect x="50.5" y="43.5" width="18" height="6" transform="rotate(-90 50.5 43.5)" fill="#6BC9E6" stroke="black"/>
<rect x="56.5" y="50.5" width="32" height="22" transform="rotate(-90 56.5 50.5)" fill="#6BC9E6" stroke="black"/>
<rect x="54.5" y="43" width="17" height="5" transform="rotate(-90 54.5 43)" fill="#6BC9E6"/>
<line x1="50.5" y1="25" x2="50.5" y2="18" stroke="#2C2C2C"/>
<line x1="56" y1="18.5" x2="50" y2="18.5" stroke="#2C2C2C"/>
<line x1="50.5" y1="51" x2="50.5" y2="44" stroke="#2C2C2C"/>
<path d="M51 50C50.7239 50 50.5 50.2239 50.5 50.5C50.5 50.7761 50.7239 51 51 51L51 50ZM57 50L51 50L51 51L57 51L57 50Z" fill="#2C2C2C"/>
<path d="M78.6209 64.0568L79.0494 63.7202C79.3168 63.4837 79.3708 63.0871 79.1765 62.7877L78.8537 62.3488C78.5523 61.939 78.2035 61.5664 77.8145 61.2387C77.5327 61.0014 77.2311 60.7887 76.913 60.6029L76.065 60.1077L74.3373 59.2786L72.7787 58.7099L71.1038 58.2442L69.6137 57.9224L65.9996 57.4299L62.8556 57.2389L60.2981 57.2465L59.394 57.3412C58.7046 57.4133 58.0625 57.725 57.5793 58.2219C57.138 58.6758 56.8538 59.259 56.7684 59.8862L56.682 60.5196C56.5966 61.1467 56.7163 61.7885 57.0201 62.3439C57.3526 62.9519 57.886 63.4204 58.5308 63.6744L59.3767 64.0076L61.8389 64.6993L64.9193 65.3566L68.5335 65.8491L70.0553 65.9378L71.7937 65.9372L73.4477 65.8065L75.3342 65.4699L76.2838 65.2196C76.64 65.1258 76.9876 65.0015 77.3225 64.8482C77.7851 64.6366 78.2209 64.3709 78.6209 64.0568Z" fill="#E56969" stroke="white" stroke-width="0.5"/>
<path d="M63.6219 63.6227C62.5255 63.4884 61.7455 62.4908 61.8797 61.3945L62.0013 60.4019C62.1355 59.3055 63.1331 58.5255 64.2295 58.6597L70.185 59.3888C71.2814 59.523 72.0614 60.5206 71.9272 61.617L71.8056 62.6096C71.6714 63.706 70.6738 64.486 69.5774 64.3517L63.6219 63.6227Z" fill="#AE5858"/>
<path d="M79.0046 4.62513L79.4377 4.95574C79.7082 5.18861 79.7677 5.58438 79.5775 5.88647L79.2607 6.32975C78.965 6.74359 78.6213 7.12094 78.2368 7.45393C77.9583 7.69509 77.6596 7.91193 77.3441 8.10204L76.5029 8.60882L74.7868 9.46151L73.2361 10.0514L71.5677 10.54L70.0822 10.8822L66.4751 11.4242L63.3341 11.6582L60.7767 11.6855L59.8714 11.6033C59.1811 11.5406 58.5347 11.2377 58.0448 10.7474C57.5974 10.2997 57.3052 9.72036 57.2112 9.0944L57.1162 8.4623C57.0221 7.83635 57.1331 7.19302 57.4292 6.63356C57.7534 6.02097 58.2803 5.54523 58.9216 5.28244L59.7628 4.93776L62.2153 4.21236L65.2865 3.51298L68.8936 2.971L70.414 2.86152L72.1523 2.83826L73.8079 2.94641L75.6988 3.25713L76.6518 3.49434C77.0093 3.58332 77.3585 3.70281 77.6955 3.85149C78.1609 4.05678 78.6003 4.31647 79.0046 4.62513Z" fill="#E56969" stroke="white" stroke-width="0.5"/>
<path d="M64.4717 10.1645C63.3827 10.3498 62.3498 9.61726 62.1645 8.52835L61.9967 7.54252C61.8114 6.45361 62.5439 5.42064 63.6328 5.23533L69.5477 4.22869C70.6367 4.04338 71.6696 4.77589 71.8549 5.8648L72.0227 6.85063C72.208 7.93954 71.4755 8.97251 70.3866 9.15782L64.4717 10.1645Z" fill="#AE5858"/>
<path d="M73.5 63C73.5 63.2761 73.7239 63.5 74 63.5C74.2761 63.5 74.5 63.2761 74.5 63H73.5ZM73.5 53V63H74.5V53H73.5Z" fill="#2C2C2C"/>
<path d="M60 59C60 59.2761 60.2239 59.5 60.5 59.5C60.7761 59.5 61 59.2761 61 59H60ZM60 53V59H61V53H60Z" fill="#2C2C2C"/>
<path d="M60 10C60 9.72386 60.2239 9.5 60.5 9.5C60.7761 9.5 61 9.72386 61 10H60ZM60 16V10H61V16H60Z" fill="#2C2C2C"/>
<path d="M74.5 6C74.5 5.72386 74.2761 5.5 74 5.5C73.7239 5.5 73.5 5.72386 73.5 6H74.5ZM73.5 6V16H74.5V6H73.5Z" fill="#2C2C2C"/>
<rect x="59.5" y="54" width="2" height="14" rx="1" transform="rotate(-90 59.5 54)" fill="#D9D9D9"/>
<rect width="2" height="14" rx="1" transform="matrix(0 1 1 0 59.5 15)" fill="#D9D9D9"/>
<rect x="72.5" y="55" width="41" height="3" rx="1.5" transform="rotate(-90 72.5 55)" fill="#D9D9D9"/>
<rect x="8" y="46" width="8" height="25" rx="2" transform="rotate(-51 8 46)" fill="#E56969"/>
<rect x="13" y="29" width="8" height="25" rx="2" transform="rotate(-129 13 29)" fill="#E56969"/>
</svg>
