<svg width="190" height="46" viewBox="0 0 20 20" fill="none" xmlns="http://www.w3.org/2000/svg">
<g filter="url(#filter0_d_336_1714)">
<path d="M700.868 131.029L703.396 114.158C704.406 102.966 696.152 93.075 684.96 92.0653L667.909 91.5328C650.473 90.9882 633.032 92.4291 615.922 95.8276L615.134 95.9841C603.374 98.3201 591.814 101.572 580.56 105.711L547.282 117.949L486.052 145.622L434.954 174.209L383.398 207.862L339.67 239.668L240.255 322.63L159.256 399.592L97.1305 465.489L73.537 495.4C60.7891 511.561 53.7317 531.477 53.4599 552.059C53.1653 574.372 60.8621 596.054 75.1593 613.187L81.5463 620.84C95.8435 637.973 115.678 649.406 137.683 653.11C157.981 656.526 178.959 653.168 197.141 643.518L230.791 625.659L306.743 576.331L396.96 510.415L496.376 427.454L535.495 390.125L577.832 345.425L615.103 300.269L653.289 244.98L671.285 214.43C677.371 204.099 682.64 193.307 687.043 182.155L687.338 181.407C693.744 165.182 698.283 148.281 700.868 131.029Z" fill="#9747FF" stroke="black" stroke-width="5.74979"/>
<path d="M611.611 231.52C593.081 246.983 564.88 244.013 548.649 224.563C532.418 205.113 534.543 176.836 553.073 161.373C571.604 145.909 599.804 148.88 616.035 168.33C632.266 187.78 630.141 216.057 611.611 231.52Z" stroke="#2C2C2C" stroke-width="5.74979"/>
<ellipse cx="582.337" cy="196.436" rx="26.1458" ry="25.1775" transform="rotate(50.1552 582.337 196.436)" fill="#FEDE65"/>
<path d="M561.908 169.709C564.346 167.675 567.972 168.002 570.006 170.44L575.895 177.496L559.326 191.323L549.753 179.852L561.908 169.709Z" fill="#FEDE65"/>
<path d="M599.823 206.17L605.712 213.226C607.746 215.664 607.419 219.29 604.981 221.325L592.826 231.468L583.254 219.997L599.823 206.17Z" fill="#FEDE65"/>
<line x1="548.832" y1="185.478" x2="556.011" y2="194.082" stroke="#D7D7D7" stroke-width="5.74979"/>
<line x1="549.567" y1="190.845" x2="588.229" y2="158.583" stroke="white" stroke-width="5.74979"/>
<line x1="600.571" y1="150.922" x2="589.525" y2="160.14" stroke="#FC2424" stroke-width="5.74979"/>
<line x1="595.413" y1="150.356" x2="587.128" y2="157.269" stroke="#EB9E9E" stroke-width="5.74979"/>
<line x1="579.945" y1="222.763" x2="587.125" y2="231.367" stroke="#D7D7D7" stroke-width="5.74979"/>
<line x1="580.681" y1="228.131" x2="619.342" y2="195.868" stroke="white" stroke-width="5.74979"/>
<line x1="631.318" y1="193.375" x2="623.034" y2="200.289" stroke="#EB9E9E" stroke-width="5.74979"/>
<line x1="631.684" y1="188.199" x2="620.638" y2="197.417" stroke="#FC2424" stroke-width="5.74979"/>
<rect x="125.565" y="631.494" width="28.7743" height="89.9195" rx="11.4996" transform="rotate(-90.8448 125.565 631.494)" fill="#EB9E9E"/>
<rect x="100.195" y="573.02" width="28.7743" height="89.9196" rx="11.4996" transform="rotate(-168.845 100.195 573.02)" fill="#EB9E9E"/>
<path d="M145.256 463.059C175.072 438.178 220.447 442.958 246.562 474.253C272.678 505.548 269.259 551.046 239.444 575.927C209.628 600.807 164.253 596.028 138.138 564.732C112.022 533.437 115.441 487.94 145.256 463.059Z" stroke="#2C2C2C" stroke-width="9.25148"/>
<ellipse cx="183.473" cy="526.91" rx="42.069" ry="40.5109" transform="rotate(-129.845 183.473 526.91)" fill="#FEDE65"/>
<path d="M216.343 569.924C212.421 573.198 206.587 572.671 203.313 568.748L193.838 557.394L220.498 535.147L235.901 553.604L216.343 569.924Z" fill="#FEDE65"/>
<path d="M155.334 511.256L145.859 499.902C142.585 495.979 143.112 490.145 147.035 486.871L166.592 470.551L181.994 489.008L155.334 511.256Z" fill="#FEDE65"/>
<line x1="237.394" y1="544.526" x2="225.842" y2="530.683" stroke="#D7D7D7" stroke-width="9.25148"/>
<line x1="236.21" y1="535.888" x2="174.003" y2="587.799" stroke="white" stroke-width="9.25148"/>
<line x1="154.146" y1="600.148" x2="171.92" y2="585.316" stroke="#FC2424" stroke-width="9.25148"/>
<line x1="162.442" y1="601.05" x2="175.773" y2="589.926" stroke="#EB9E9E" stroke-width="9.25148"/>
<line x1="187.326" y1="484.561" x2="175.775" y2="470.719" stroke="#D7D7D7" stroke-width="9.25148"/>
<line x1="186.143" y1="475.923" x2="123.936" y2="527.834" stroke="white" stroke-width="9.25148"/>
<line x1="104.69" y1="531.839" x2="118.02" y2="520.715" stroke="#EB9E9E" stroke-width="9.25148"/>
<line x1="104.092" y1="540.163" x2="121.866" y2="525.331" stroke="#FC2424" stroke-width="9.25148"/>
<path d="M183.588 456.823L160.407 400.975L241.404 324.011L298.212 389.279L247.123 431.912L211.204 433.778L183.588 456.823Z" fill="#3A849B"/>
<path d="M256.96 544.747L305.59 574.953L395.805 509.034L343.93 444.064L292.841 486.697L284.576 521.702L256.96 544.747Z" fill="#3A849B"/>
<rect x="237.3" y="525.125" width="62.5891" height="19.4277" transform="rotate(-129.845 237.3 525.125)" fill="#6A6FF6" stroke="black" stroke-width="5.74979"/>
<rect x="270.003" y="530.627" width="112.944" height="76.9762" transform="rotate(-129.845 270.003 530.627)" fill="#6A6FF6" stroke="black" stroke-width="5.74979"/>
<rect x="247.059" y="516.045" width="61.1453" height="17.9839" transform="rotate(-129.845 247.059 516.045)" fill="#6A6FF6"/>
<line x1="193.707" y1="476.246" x2="177.576" y2="456.915" stroke="#2C2C2C" stroke-width="5.74979"/>
<line x1="195.433" y1="445.756" x2="178.864" y2="459.583" stroke="#2C2C2C" stroke-width="5.74979"/>
<line x1="253.621" y1="548.043" x2="237.49" y2="528.712" stroke="#2C2C2C" stroke-width="5.74979"/>
<path d="M252.834 542.614C251.615 543.631 251.451 545.444 252.468 546.663C253.486 547.882 255.299 548.046 256.518 547.028L252.834 542.614ZM269.403 528.787L252.834 542.614L256.518 547.028L273.087 533.201L269.403 528.787Z" fill="#2C2C2C"/>
<path d="M362.204 518.602L362.612 516.685C362.805 515.416 362.04 514.196 360.814 513.817L358.911 513.349C357.134 512.912 355.312 512.686 353.483 512.678C352.158 512.672 350.834 512.78 349.528 513L346.045 513.586L339.363 515.278L333.748 517.3L328.05 519.873L323.193 522.418L312.078 529.387L302.955 536.105L295.91 542.02L293.632 544.365C291.894 546.153 290.839 548.493 290.65 550.979C290.477 553.249 291.037 555.515 292.246 557.444L293.467 559.392C294.676 561.321 296.486 562.817 298.605 563.65C300.924 564.563 303.477 564.628 305.843 563.843L308.947 562.814L317.34 559.05L327.362 553.767L338.477 546.798L342.884 543.536L347.684 539.528L351.95 535.355L356.384 530.078L358.43 527.199C359.197 526.119 359.87 524.975 360.442 523.78C361.232 522.129 361.823 520.391 362.204 518.602Z" fill="#EB9E9E" stroke="white" stroke-width="2.87489"/>
<path d="M321.29 550.997C317.119 553.692 311.552 552.495 308.858 548.324V548.324C306.163 544.153 307.359 538.587 311.531 535.892L326.636 526.132C330.807 523.438 336.374 524.634 339.069 528.806V528.806C341.764 532.977 340.567 538.543 336.395 541.238L321.29 550.997Z" fill="#AE5858"/>
<path d="M226.308 353.598L228.266 353.513C229.55 353.533 230.626 354.489 230.797 355.761L230.944 357.715C231.081 359.54 231.001 361.374 230.707 363.179C230.494 364.487 230.169 365.774 229.735 367.026L228.58 370.364L225.806 376.674L222.883 381.876L219.402 387.071L216.088 391.439L207.376 401.248L199.241 409.133L192.242 415.102L189.552 416.961C187.501 418.378 185.018 419.032 182.536 418.807C180.268 418.601 178.126 417.675 176.424 416.163L174.705 414.636C173.003 413.124 171.827 411.092 171.355 408.865C170.839 406.426 171.197 403.898 172.363 401.694L173.892 398.804L178.993 391.149L185.862 382.14L194.574 372.331L198.521 368.525L203.267 364.455L208.089 360.938L214.027 357.438L217.205 355.897C218.397 355.319 219.637 354.845 220.91 354.478C222.669 353.973 224.481 353.677 226.308 353.598Z" fill="#EB9E9E" stroke="white" stroke-width="2.87489"/>
<path d="M200.114 401.025C196.889 404.802 191.213 405.249 187.436 402.024V402.024C183.66 398.799 183.213 393.123 186.438 389.347L198.117 375.671C201.342 371.894 207.018 371.447 210.794 374.672V374.672C214.571 377.897 215.018 383.573 211.793 387.35L200.114 401.025Z" fill="#AE5858"/>
<path d="M344.796 528.178C345.813 529.397 347.626 529.561 348.845 528.543C350.064 527.526 350.228 525.713 349.211 524.494L344.796 528.178ZM321.751 500.563L344.796 528.178L349.211 524.494L326.166 496.879L321.751 500.563Z" fill="#2C2C2C"/>
<path d="M298.298 548.245C299.315 549.464 301.128 549.628 302.347 548.611C303.566 547.593 303.729 545.78 302.712 544.561L298.298 548.245ZM284.471 531.676L298.298 548.245L302.712 544.561L288.885 527.992L284.471 531.676Z" fill="#2C2C2C"/>
<path d="M185.38 412.933C184.363 411.714 184.526 409.901 185.745 408.884C186.964 407.866 188.777 408.03 189.795 409.249L185.38 412.933ZM199.207 429.502L185.38 412.933L189.795 409.249L203.622 425.818L199.207 429.502Z" fill="#2C2C2C"/>
<path d="M217.857 367.088C216.84 365.869 215.027 365.705 213.808 366.722C212.589 367.74 212.425 369.553 213.442 370.772L217.857 367.088ZM213.442 370.772L236.487 398.387L240.902 394.703L217.857 367.088L213.442 370.772Z" fill="#2C2C2C"/>
<rect x="286.224" y="534.902" width="7.19356" height="50.355" rx="3.59678" transform="rotate(-129.845 286.224 534.902)" fill="#D9D9D9"/>
<rect width="7.19356" height="50.355" rx="3.59678" transform="matrix(0.64071 0.767783 0.767783 -0.64071 196.342 427.191)" fill="#D9D9D9"/>
<rect x="324.426" y="507.701" width="147.468" height="10.7903" rx="5.39517" transform="rotate(-129.845 324.426 507.701)" fill="#D9D9D9"/>
<path d="M417.981 303.619C413.53 288.493 415.355 271.933 423.052 257.772L425.578 259.145C429.07 252.72 433.832 246.808 439.829 241.804C445.826 236.8 452.494 233.173 459.44 230.887L458.542 228.156C473.852 223.118 490.471 224.287 504.556 231.373L503.264 233.941C509.81 237.235 515.78 241.872 520.75 247.828C525.72 253.783 529.214 260.487 531.283 267.517L534.041 266.706C538.491 281.832 536.667 298.391 528.97 312.553L526.444 311.18C522.952 317.604 518.19 323.516 512.193 328.521C506.196 333.525 499.528 337.152 492.582 339.438L493.48 342.168C478.17 347.206 461.551 346.038 447.466 338.952L448.758 336.384C442.212 333.09 436.242 328.452 431.272 322.497C426.302 316.541 422.808 309.838 420.739 302.807L417.981 303.619Z" stroke="#EB9E9E" stroke-width="5.74979" stroke-dasharray="40.25 40.25"/>
<path d="M501.138 332.112L498.423 331.56C460.721 323.892 433.8 290.497 434.308 252.027V252.027L485.882 246.465L515.841 282.365L501.138 332.112Z" fill="#6A6FF6"/>
<rect x="474.288" y="290.116" width="5.39517" height="88.1212" transform="rotate(-129.845 474.288 290.116)" fill="#D9D9D9" stroke="black" stroke-width="5.39517"/>
<path d="M489.697 430.681L464.843 451.422L385.338 356.148L310.442 266.398L335.296 245.658L433.874 285.195L470.746 329.38L489.697 430.681Z" fill="#3A849B"/>
<path d="M395.805 509.037L393.5 506.276L391.196 503.514L460.235 445.902L464.844 451.425L395.805 509.037Z" fill="#3A849B"/>
<path d="M246.015 329.539L243.71 326.778L241.406 324.016L310.444 266.404L312.749 269.165L315.053 271.927L246.015 329.539Z" fill="#3A849B"/>
<path d="M391.564 499.459L250.065 329.896L315.807 275.034C324.34 267.913 337.031 269.058 344.152 277.591L456.179 411.838C465.335 422.809 463.863 439.125 452.891 448.281L391.564 499.459Z" fill="#9747FF" stroke="black" stroke-width="5.74979"/>
<path d="M417.292 412.402L340.318 320.162L346.96 314.62C353.055 309.534 362.12 310.351 367.206 316.447L425.76 386.613C430.846 392.709 430.028 401.773 423.933 406.86L417.292 412.402Z" fill="#3A849B" stroke="black" stroke-width="5.74979"/>
<rect x="378.193" y="477.82" width="170.493" height="69.7826" transform="rotate(-129.845 378.193 477.82)" fill="#3A849B" stroke="black" stroke-width="5.74979"/>
<rect x="411.864" y="415.992" width="118.694" height="10.7903" transform="rotate(-129.845 411.864 415.992)" fill="#3A849B"/>
<rect x="377.697" y="426.707" width="91.3633" height="26.6213" transform="rotate(-129.845 377.697 426.707)" fill="#6A6FF6" stroke="black" stroke-width="5.74979"/>
<rect x="390.725" y="480.473" width="17.9839" height="57.5485" rx="8.99196" transform="rotate(-129.845 390.725 480.473)" fill="#EB9E9E"/>
<rect x="280.106" y="347.912" width="17.9839" height="57.5485" rx="8.99196" transform="rotate(-129.845 280.106 347.912)" fill="#EB9E9E"/>
<rect x="354.253" y="488.425" width="156.105" height="62.5891" rx="31.2945" transform="rotate(-129.845 354.253 488.425)" fill="#6A6FF6" stroke="black" stroke-width="5.74979"/>
<path d="M319.292 403.293L341.113 385.084C342.332 384.067 344.145 384.231 345.162 385.45L353.925 395.951C354.943 397.17 354.779 398.983 353.56 400.001L331.74 418.209C327.621 421.647 321.495 421.094 318.058 416.975C314.621 412.856 315.173 406.73 319.292 403.293Z" fill="#FEDE65" stroke="black" stroke-width="5.74979"/>
<circle cx="350.371" cy="390.007" r="12.5887" transform="rotate(-129.845 350.371 390.007)" fill="white"/>
<rect x="345.568" y="443.201" width="14.3871" height="46.7582" rx="7.19356" transform="rotate(-129.845 345.568 443.201)" fill="#D9D9D9"/>
<rect x="306.39" y="396.256" width="14.3871" height="46.7582" rx="7.19356" transform="rotate(-129.845 306.39 396.256)" fill="#D9D9D9"/>
<rect x="389.808" y="490.609" width="205.017" height="10.7903" rx="5.39517" transform="rotate(-129.845 389.808 490.609)" fill="#D9D9D9"/>
<path d="M663.123 144.488C663.68 144.023 664.738 143.715 666.396 144.205C668.031 144.688 669.914 145.886 671.51 147.798C673.106 149.711 673.947 151.778 674.13 153.473C674.316 155.192 673.823 156.177 673.266 156.643C672.708 157.108 671.651 157.416 669.992 156.926C668.357 156.442 666.475 155.245 664.879 153.332C663.282 151.42 662.442 149.353 662.259 147.658C662.073 145.939 662.565 144.953 663.123 144.488Z" fill="#EB9E9E" stroke="black" stroke-width="5.74979"/>
<path d="M637.774 114.111C638.331 113.646 639.389 113.338 641.047 113.828C642.682 114.311 644.565 115.509 646.161 117.421C647.757 119.334 648.598 121.401 648.781 123.096C648.966 124.815 648.474 125.801 647.917 126.266C647.359 126.731 646.301 127.039 644.643 126.549C643.008 126.065 641.125 124.868 639.529 122.955C637.933 121.043 637.092 118.976 636.909 117.281C636.724 115.562 637.216 114.576 637.774 114.111Z" fill="#EB9E9E" stroke="black" stroke-width="5.74979"/>
</g>
<defs>
<filter id="filter0_d_336_1714" x="50.5769" y="88.5449" width="659.778" height="572.74" filterUnits="userSpaceOnUse" color-interpolation-filters="sRGB">
<feFlood flood-opacity="0" result="BackgroundImageFix"/>
<feColorMatrix in="SourceAlpha" type="matrix" values="0 0 0 0 0 0 0 0 0 0 0 0 0 0 0 0 0 0 127 0" result="hardAlpha"/>
<feOffset dx="4" dy="4"/>
<feComposite in2="hardAlpha" operator="out"/>
<feColorMatrix type="matrix" values="0 0 0 0 0 0 0 0 0 0 0 0 0 0 0 0 0 0 1 0"/>
<feBlend mode="normal" in2="BackgroundImageFix" result="effect1_dropShadow_336_1714"/>
<feBlend mode="normal" in="SourceGraphic" in2="effect1_dropShadow_336_1714" result="shape"/>
</filter>
</defs>
</svg>
