<svg width="46" height="39" viewBox="0 0 46 39" fill="none" xmlns="http://www.w3.org/2000/svg">
<path d="M34.6742 27.6804C32.7941 31.13 29.7856 33.8134 26.1642 35.2771C22.5432 36.7406 18.5308 36.8953 14.8096 35.7153C11.0881 34.5352 7.88491 32.0919 5.74832 28.798C3.61151 25.5038 2.67485 21.5639 3.10023 17.6501C3.52561 13.7363 5.28617 10.0948 8.07828 7.34504C10.8701 4.59554 14.5203 2.90747 18.4062 2.56479C22.2921 2.22211 26.1772 3.24558 29.4 5.46335C32.6231 7.68136 34.9855 10.9577 36.0806 14.7365" stroke="#6BC9E6" stroke-width="5"/>
<path d="M38.4499 18.1468C38.3849 18.917 37.5125 19.3291 36.8822 18.8873L28.4162 12.9544C27.7877 12.5139 27.8712 11.5546 28.5666 11.2261L37.9056 6.81482C38.601 6.48637 39.3877 7.03469 39.3229 7.80259L38.4499 18.1468Z" fill="#6BC9E6"/>
</svg>
